# This file uses centimeters as units for non-parametric coordinates.

mtllib hole.mtl
g default
v -79.528049 -0.000000 109.246265
v 200.087063 -0.000000 109.246265
v -79.528049 0.000000 -212.090038
v 200.087063 0.000000 -212.090038
v 90.201966 0.000000 -115.903225
v 27.431755 0.000000 -119.291592
v 122.608795 -0.000000 41.046742
v 28.397862 -0.000000 20.512119
vt 0.000000 0.000000
vt 0.870163 0.000000
vt 0.000000 1.000000
vt 0.870163 1.000000
vt 0.528201 0.700666
vt 0.332859 0.711211
vt 0.629051 0.212237
vt 0.335866 0.276141
vn 0.000000 1.000000 0.000000
vn 0.000000 1.000000 0.000000
vn 0.000000 1.000000 0.000000
vn 0.000000 1.000000 0.000000
vn 0.000000 1.000000 0.000000
vn 0.000000 1.000000 0.000000
vn 0.000000 1.000000 0.000000
vn 0.000000 1.000000 0.000000
s off
g pPlane1
usemtl initialShadingGroup
f 4/4/1 3/3/2 1/1/3 2/2/4 7/7/5 8/8/6 6/6/7 5/5/8
